<svg width="40" height="40" viewBox="0 0 40 40" fill="none" xmlns="http://www.w3.org/2000/svg">
  <defs>
    <linearGradient id="botGradient" x1="0%" y1="0%" x2="100%" y2="100%">
      <stop offset="0%" style="stop-color:#8B5CF6;stop-opacity:1" />
      <stop offset="100%" style="stop-color:#EC4899;stop-opacity:1" />
    </linearGradient>
  </defs>

  <!-- Background circle -->
  <circle cx="20" cy="20" r="18" fill="url(#botGradient)" stroke="#6B7280" stroke-width="1"/>

  <!-- Bot head -->
  <rect x="12" y="10" width="16" height="12" rx="2" fill="white" opacity="0.9"/>

  <!-- Eyes -->
  <circle cx="16" cy="15" r="1.5" fill="#8B5CF6"/>
  <circle cx="24" cy="15" r="1.5" fill="#8B5CF6"/>

  <!-- Mouth -->
  <rect x="18" y="19" width="4" height="1" rx="0.5" fill="#8B5CF6"/>

  <!-- Antenna -->
  <line x1="20" y1="10" x2="20" y2="7" stroke="white" stroke-width="1.5" stroke-linecap="round"/>
  <circle cx="20" cy="6" r="1" fill="#EC4899"/>

  <!-- Body -->
  <rect x="14" y="22" width="12" height="8" rx="1" fill="white" opacity="0.8"/>

  <!-- Control panel -->
  <circle cx="17" cy="25" r="1" fill="#8B5CF6" opacity="0.6"/>
  <circle cx="20" cy="25" r="1" fill="#EC4899" opacity="0.6"/>
  <circle cx="23" cy="25" r="1" fill="#10B981" opacity="0.6"/>

  <!-- Arms -->
  <rect x="10" y="24" width="4" height="2" rx="1" fill="white" opacity="0.7"/>
  <rect x="26" y="24" width="4" height="2" rx="1" fill="white" opacity="0.7"/>

  <!-- Legs -->
  <rect x="16" y="30" width="2" height="4" rx="1" fill="white" opacity="0.7"/>
  <rect x="22" y="30" width="2" height="4" rx="1" fill="white" opacity="0.7"/>
</svg>